<?xml version="1.0" encoding="UTF-8" ?>
<svg version="1.1" width="32" height="32" xmlns="http://www.w3.org/2000/svg" shape-rendering="crispEdges">
<rect x="12" y="0" width="8" height="1" fill="#000000" />
<rect x="11" y="1" width="1" height="1" fill="#000000" />
<rect x="12" y="1" width="8" height="2" fill="#FFFFFF" />
<rect x="20" y="1" width="1" height="1" fill="#000000" />
<rect x="10" y="2" width="1" height="8" fill="#000000" />
<rect x="11" y="2" width="1" height="8" fill="#FFFFFF" />
<rect x="20" y="2" width="1" height="6" fill="#FFFFFF" />
<rect x="21" y="2" width="1" height="8" fill="#000000" />
<rect x="12" y="3" width="6" height="8" fill="#FFFFFF" />
<rect x="18" y="3" width="1" height="3" fill="#000000" />
<rect x="19" y="3" width="1" height="5" fill="#FFFFFF" />
<rect x="18" y="6" width="1" height="2" fill="#FFFFFF" />
<rect x="18" y="8" width="3" height="1" fill="#000000" />
<rect x="18" y="9" width="3" height="1" fill="#FFFFFF" />
<rect x="11" y="10" width="1" height="1" fill="#000000" />
<rect x="18" y="10" width="2" height="1" fill="#FFFFFF" />
<rect x="20" y="10" width="1" height="1" fill="#000000" />
<rect x="12" y="11" width="8" height="1" fill="#000000" />
<rect x="11" y="12" width="3" height="1" fill="#000000" />
<rect x="14" y="12" width="3" height="8" fill="#FFFFFF" />
<rect x="17" y="12" width="1" height="6" fill="#000000" />
<rect x="18" y="12" width="2" height="5" fill="#FFFFFF" />
<rect x="20" y="12" width="1" height="1" fill="#000000" />
<rect x="10" y="13" width="1" height="11" fill="#000000" />
<rect x="11" y="13" width="2" height="10" fill="#FFFFFF" />
<rect x="13" y="13" width="1" height="8" fill="#000000" />
<rect x="20" y="13" width="1" height="10" fill="#FFFFFF" />
<rect x="21" y="13" width="1" height="11" fill="#000000" />
<rect x="18" y="17" width="1" height="6" fill="#000000" />
<rect x="19" y="17" width="1" height="7" fill="#FFFFFF" />
<rect x="17" y="18" width="1" height="4" fill="#FFFFFF" />
<rect x="14" y="20" width="1" height="2" fill="#000000" />
<rect x="15" y="20" width="2" height="1" fill="#FFFFFF" />
<rect x="13" y="21" width="1" height="4" fill="#FFFFFF" />
<rect x="15" y="21" width="1" height="2" fill="#000000" />
<rect x="16" y="21" width="1" height="1" fill="#FFFFFF" />
<rect x="14" y="22" width="1" height="3" fill="#FFFFFF" />
<rect x="16" y="22" width="2" height="1" fill="#000000" />
<rect x="11" y="23" width="1" height="2" fill="#000000" />
<rect x="12" y="23" width="1" height="1" fill="#FFFFFF" />
<rect x="15" y="23" width="4" height="2" fill="#FFFFFF" />
<rect x="20" y="23" width="1" height="2" fill="#000000" />
<rect x="12" y="24" width="1" height="2" fill="#000000" />
<rect x="19" y="24" width="1" height="2" fill="#000000" />
<rect x="13" y="25" width="6" height="1" fill="#000000" />
<rect x="13" y="26" width="1" height="6" fill="#000000" />
<rect x="14" y="26" width="4" height="5" fill="#FFFFFF" />
<rect x="18" y="26" width="1" height="6" fill="#000000" />
<rect x="14" y="31" width="4" height="1" fill="#000000" />
</svg>