<?xml version="1.0" encoding="UTF-8" ?>
<svg version="1.1" width="32" height="32" xmlns="http://www.w3.org/2000/svg" shape-rendering="crispEdges">
<rect x="9" y="0" width="14" height="1" fill="#000000" />
<rect x="8" y="1" width="1" height="1" fill="#000000" />
<rect x="9" y="1" width="14" height="2" fill="#FFFFFF" />
<rect x="23" y="1" width="1" height="1" fill="#000000" />
<rect x="7" y="2" width="1" height="1" fill="#000000" />
<rect x="8" y="2" width="1" height="8" fill="#FFFFFF" />
<rect x="23" y="2" width="1" height="8" fill="#FFFFFF" />
<rect x="24" y="2" width="1" height="1" fill="#000000" />
<rect x="6" y="3" width="1" height="6" fill="#000000" />
<rect x="7" y="3" width="1" height="6" fill="#FFFFFF" />
<rect x="9" y="3" width="2" height="8" fill="#FFFFFF" />
<rect x="11" y="3" width="1" height="3" fill="#000000" />
<rect x="12" y="3" width="8" height="6" fill="#FFFFFF" />
<rect x="20" y="3" width="1" height="3" fill="#000000" />
<rect x="21" y="3" width="2" height="8" fill="#FFFFFF" />
<rect x="24" y="3" width="1" height="6" fill="#FFFFFF" />
<rect x="25" y="3" width="1" height="6" fill="#000000" />
<rect x="11" y="6" width="1" height="5" fill="#FFFFFF" />
<rect x="20" y="6" width="1" height="5" fill="#FFFFFF" />
<rect x="7" y="9" width="1" height="1" fill="#000000" />
<rect x="12" y="9" width="8" height="1" fill="#000000" />
<rect x="24" y="9" width="1" height="1" fill="#000000" />
<rect x="8" y="10" width="1" height="1" fill="#000000" />
<rect x="12" y="10" width="8" height="1" fill="#FFFFFF" />
<rect x="23" y="10" width="1" height="1" fill="#000000" />
<rect x="9" y="11" width="14" height="1" fill="#000000" />
<rect x="8" y="12" width="1" height="1" fill="#000000" />
<rect x="9" y="12" width="14" height="12" fill="#FFFFFF" />
<rect x="23" y="12" width="1" height="1" fill="#000000" />
<rect x="5" y="13" width="3" height="1" fill="#000000" />
<rect x="8" y="13" width="1" height="10" fill="#FFFFFF" />
<rect x="23" y="13" width="1" height="10" fill="#FFFFFF" />
<rect x="24" y="13" width="3" height="1" fill="#000000" />
<rect x="4" y="14" width="2" height="1" fill="#000000" />
<rect x="6" y="14" width="1" height="3" fill="#FFFFFF" />
<rect x="7" y="14" width="1" height="10" fill="#000000" />
<rect x="24" y="14" width="1" height="10" fill="#000000" />
<rect x="25" y="14" width="1" height="3" fill="#FFFFFF" />
<rect x="26" y="14" width="2" height="1" fill="#000000" />
<rect x="3" y="15" width="2" height="1" fill="#000000" />
<rect x="5" y="15" width="1" height="4" fill="#FFFFFF" />
<rect x="26" y="15" width="1" height="4" fill="#FFFFFF" />
<rect x="27" y="15" width="2" height="1" fill="#000000" />
<rect x="3" y="16" width="1" height="5" fill="#000000" />
<rect x="4" y="16" width="1" height="7" fill="#FFFFFF" />
<rect x="27" y="16" width="1" height="7" fill="#FFFFFF" />
<rect x="28" y="16" width="1" height="5" fill="#000000" />
<rect x="6" y="17" width="1" height="3" fill="#000000" />
<rect x="25" y="17" width="1" height="3" fill="#000000" />
<rect x="5" y="19" width="1" height="5" fill="#000000" />
<rect x="26" y="19" width="1" height="5" fill="#000000" />
<rect x="2" y="20" width="1" height="4" fill="#000000" />
<rect x="29" y="20" width="1" height="4" fill="#000000" />
<rect x="3" y="21" width="1" height="2" fill="#FFFFFF" />
<rect x="28" y="21" width="1" height="2" fill="#FFFFFF" />
<rect x="3" y="23" width="2" height="1" fill="#000000" />
<rect x="8" y="23" width="1" height="2" fill="#000000" />
<rect x="23" y="23" width="1" height="2" fill="#000000" />
<rect x="27" y="23" width="2" height="1" fill="#000000" />
<rect x="9" y="24" width="1" height="4" fill="#000000" />
<rect x="10" y="24" width="12" height="1" fill="#FFFFFF" />
<rect x="22" y="24" width="1" height="4" fill="#000000" />
<rect x="10" y="25" width="12" height="1" fill="#000000" />
<rect x="10" y="26" width="3" height="3" fill="#FFFFFF" />
<rect x="13" y="26" width="1" height="4" fill="#000000" />
<rect x="18" y="26" width="1" height="4" fill="#000000" />
<rect x="19" y="26" width="3" height="3" fill="#FFFFFF" />
<rect x="8" y="27" width="1" height="5" fill="#000000" />
<rect x="23" y="27" width="1" height="5" fill="#000000" />
<rect x="9" y="28" width="1" height="3" fill="#FFFFFF" />
<rect x="22" y="28" width="1" height="3" fill="#FFFFFF" />
<rect x="10" y="29" width="2" height="2" fill="#FFFFFF" />
<rect x="12" y="29" width="1" height="3" fill="#000000" />
<rect x="19" y="29" width="1" height="3" fill="#000000" />
<rect x="20" y="29" width="2" height="2" fill="#FFFFFF" />
<rect x="9" y="31" width="3" height="1" fill="#000000" />
<rect x="20" y="31" width="3" height="1" fill="#000000" />
</svg>